<svg width="1024" height="1024" viewBox="0 0 1024 1024" fill="none" xmlns="http://www.w3.org/2000/svg">
<circle cx="512" cy="512" r="512" fill="url(#paint0_linear_261_41)"/>
<path fill-rule="evenodd" clip-rule="evenodd" d="M448.595 216.793C320.575 216.793 216.795 320.94 216.795 449.412V574.588C216.795 703.06 320.575 807.207 448.595 807.207H575.409C703.429 807.207 807.209 703.06 807.209 574.588V509.914C807.209 454.727 773.317 407.484 725.28 388.004C710.133 381.861 693.579 378.479 676.237 378.479H642.931C642.96 377.438 642.974 376.395 642.974 375.349V348.228C642.974 330.254 639.379 313.124 632.872 297.52L632.873 297.523C613.098 250.107 566.427 216.793 512.002 216.793H448.595ZM676.325 447.991H642.974V574.588C642.974 613.187 611.794 644.478 573.33 644.478H448.595C410.132 644.478 378.951 613.187 378.951 574.588V449.412C378.951 410.813 410.132 379.522 448.595 379.522H574.37V348.228C574.37 314.237 546.912 286.683 513.042 286.683H449.634C359.504 286.683 286.439 360.006 286.439 450.455V573.545C286.439 663.994 359.504 737.317 449.634 737.317H574.37C664.5 737.317 737.565 663.994 737.565 573.545V512.469C737.517 478.52 715.494 447.991 676.325 447.991ZM574.101 447.991H447.555V575.631H574.101V447.991Z" fill="white"/>
<rect x="574.1" y="447.991" width="68.7861" height="36.3038" fill="black" fill-opacity="0.15"/>
<defs>
<linearGradient id="paint0_linear_261_41" x1="512" y1="0" x2="512" y2="1024" gradientUnits="userSpaceOnUse">
<stop stop-color="#ED8A2F"/>
<stop offset="0.703243" stop-color="#FFBE00"/>
</linearGradient>
</defs>
</svg>
